<svg width="72" height="54" viewBox="0 0 72 54" fill="none" xmlns="http://www.w3.org/2000/svg">
<g opacity="0.7" clip-path="url(#clip0_10_2113)">
<path d="M71.9684 40.8179C71.3625 37.6756 67.4995 36.2961 60.3796 36.6027C53.6385 36.9092 51.5934 34.4567 49.8513 32.3108L49.4726 31.851C47.6547 29.7817 42.2769 20.0484 40.0803 15.2967C38.1868 11.2348 35.9144 9.85526 32.9604 10.9282C31.1426 11.5413 27.9614 12.6143 26.9767 12.9209C24.4014 11.3881 20.4627 8.85894 19.8568 7.93926C19.2509 7.01958 18.5692 4.64373 18.1904 3.18757C18.039 2.49781 17.8875 2.03797 17.8117 1.80805C17.5845 1.04165 16.9785 0.428525 16.2211 0.121964C15.3122 -0.107956 14.3275 -0.0313161 13.4943 0.505165L13.4186 0.581805C13.3428 0.658445 5.38976 7.2495 3.64766 8.70566C0.618547 11.6946 -0.517607 16.0631 0.769403 20.125C2.58725 25.1066 8.04079 27.8657 12.6612 28.7854C17.2815 29.7051 25.4618 34.0735 29.0975 38.3654C32.7332 42.6572 45.0037 52.7737 47.9577 53.5401C48.6394 53.6934 49.2453 53.7701 49.927 53.7701C53.8657 53.7701 59.7737 51.9307 60.5311 51.7774C67.954 49.9381 72.4229 43.4996 71.9684 40.8172V40.8179ZM15.8424 1.34821C16.2211 1.50149 16.5241 1.88469 16.6756 2.26789C16.7513 2.42117 16.9028 2.95765 16.9785 3.49413C17.5087 5.64005 18.039 7.70934 18.7964 8.70566C19.8568 10.0852 25.8405 13.6873 26.5222 14.1471C26.6737 14.2237 26.8252 14.2238 26.9767 14.2238C27.0524 14.2238 31.1426 12.8442 33.1877 12.0778C34.3238 11.5413 35.6115 11.7713 36.5961 12.5377C32.203 14.377 27.5069 16.2164 26.6737 16.4463C23.2653 14.377 19.9325 12.1545 16.8271 9.62534C16.2211 9.01222 15.0092 4.56709 14.3275 1.57813V1.50149C14.8577 1.2722 15.3122 1.19556 15.8424 1.34885V1.34821ZM60.2282 50.5512C56.9712 51.5475 50.7602 53.0803 48.2607 52.3139C45.7611 51.5475 33.7179 41.9675 29.9307 37.5224C26.1435 33.0772 17.6602 28.5555 12.8884 27.5591C8.79823 26.7161 3.42043 24.187 1.90556 19.6652C0.769403 16.1398 1.75407 12.2311 4.4051 9.70198C5.84423 8.47574 11.222 4.03061 13.3428 2.34453C13.7973 4.18389 15.0092 9.47206 15.9939 10.4684C16.7513 11.1581 25.6133 17.5959 26.6737 17.6726C27.4312 17.6726 32.8847 15.45 37.5808 13.534C38.111 14.2238 38.5655 15.0668 38.9442 15.8332C39.6259 17.2894 40.6106 19.282 41.8225 21.4279L30.9154 24.5702C30.6124 24.6468 30.3852 25.03 30.5367 25.3366C30.6124 25.5665 30.8396 25.7964 31.0669 25.7964H31.2183L42.4284 22.5775L44.0948 25.5665L34.7783 28.2489C34.4753 28.3255 34.2481 28.7087 34.3996 29.0153C34.4753 29.2452 34.7025 29.4751 34.9298 29.4751H35.0813L44.7007 26.7161C45.3067 27.7891 45.9126 28.7087 46.4428 29.6284L38.414 31.9276C38.111 32.0043 37.8838 32.3108 37.9595 32.694C38.0353 33.0006 38.2625 33.1539 38.5655 33.1539H38.717L47.1245 30.7014C47.579 31.3911 48.0334 32.0809 48.5636 32.7707L48.9424 33.2305C50.7602 35.4531 53.1082 38.2121 60.4554 37.9056C66.8178 37.6756 70.3778 38.8252 70.8323 41.2011C71.1352 43.0404 67.0451 48.9417 60.2282 50.5505V50.5512Z" fill="#F1F1F1"/>
<path d="M24.4772 28.4022C24.0985 28.1723 23.7955 28.019 23.4168 27.7891C23.1138 27.7124 22.7351 27.8657 22.6593 28.1723C22.5836 28.4022 22.6593 28.7087 22.8866 28.862C23.2653 29.0153 23.5682 29.2452 23.947 29.3985C24.0227 29.4751 24.0985 29.4751 24.2499 29.4751C24.4772 29.4751 24.7044 29.3219 24.7801 29.1686C24.9316 28.862 24.7801 28.5555 24.4772 28.4022Z" fill="#F1F1F1"/>
<path d="M27.5826 30.2416C27.2797 30.0883 26.901 30.1649 26.7495 30.4715C26.598 30.7014 26.6737 31.0846 26.901 31.2379L27.8856 31.9276C27.9614 32.0043 28.1129 32.0043 28.2643 32.0809C28.5673 32.0809 28.8703 31.7744 28.8703 31.4678C28.8703 31.2379 28.7945 31.0846 28.6431 31.008L27.5826 30.2416Z" fill="#F1F1F1"/>
<path d="M20.1598 26.3329L19.0237 25.8731C18.7207 25.7198 18.342 25.9497 18.2662 26.2563C18.1147 26.5628 18.342 26.946 18.645 27.0227L19.7811 27.4825C19.8569 27.4825 19.9326 27.5592 20.0083 27.5592C20.2356 27.5592 20.4628 27.4059 20.5385 27.176C20.5385 26.7928 20.4628 26.4096 20.1598 26.3329Z" fill="#F1F1F1"/>
<path d="M31.4456 33.2305C31.1426 33.0772 30.7639 33.1539 30.6124 33.4604C30.5367 33.6903 30.5367 33.9203 30.6882 34.0736L31.5971 34.84C31.6728 34.9166 31.8243 34.9932 31.9758 34.9932C32.1273 34.9932 32.3545 34.9166 32.4303 34.7633C32.6575 34.5334 32.5818 34.1502 32.3545 33.9203L31.4456 33.2305Z" fill="#F1F1F1"/>
<path d="M15.6909 24.6468L14.5548 24.187C14.2518 24.0337 13.8731 24.187 13.7973 24.4935C13.6459 24.8001 13.7973 25.1833 14.1003 25.2599L15.2365 25.7198C15.5394 25.873 15.9182 25.7198 15.9939 25.3366C16.1454 25.1066 15.9939 24.7234 15.6909 24.6468Z" fill="#F1F1F1"/>
<path d="M11.2978 22.7308C10.9191 22.5776 10.6161 22.3476 10.2374 22.1944C9.9344 21.9644 9.55568 22.0411 9.40419 22.3476C9.25271 22.6542 9.25271 23.0374 9.55568 23.1907C9.55568 23.1907 9.63142 23.2673 9.70717 23.2673C10.0859 23.4972 10.4646 23.6505 10.7676 23.8804C10.8433 23.9571 10.9191 23.9571 11.0706 23.9571C11.3735 23.9571 11.6765 23.6505 11.6765 23.344C11.6765 23.0374 11.525 22.8841 11.2978 22.7308Z" fill="#F1F1F1"/>
<path d="M38.6413 39.515C38.3383 39.3617 37.9596 39.4384 37.8081 39.7449C37.6566 39.9748 37.6566 40.2048 37.8838 40.4347L38.7928 41.2011C38.8685 41.2777 39.02 41.3544 39.1715 41.3544C39.323 41.3544 39.4745 41.2777 39.6259 41.1244C39.8532 40.8945 39.8532 40.5113 39.6259 40.2814H39.5502L38.6413 39.515Z" fill="#F1F1F1"/>
<path d="M4.5566 15.5266C4.48085 15.2201 4.17788 14.9902 3.8749 15.0668C3.57193 15.1434 3.3447 15.45 3.42044 15.7566C3.49619 16.2164 3.64767 16.5996 3.79916 16.9828C3.8749 17.2127 4.10213 17.366 4.40511 17.366H4.63234C4.93531 17.2127 5.0868 16.9062 5.01106 16.5996C4.78383 16.293 4.63234 15.9098 4.5566 15.5266Z" fill="#F1F1F1"/>
<path d="M6.60169 19.4353C6.37446 19.2054 5.99574 19.2054 5.76851 19.4353C5.54128 19.6652 5.54128 20.0484 5.76851 20.2784L6.67743 21.198C6.82892 21.2747 6.9804 21.3513 7.13189 21.3513C7.43487 21.3513 7.73784 21.0448 7.73784 20.7382C7.73784 20.5849 7.6621 20.4316 7.51061 20.2784C7.20764 19.9724 6.90466 19.7425 6.60169 19.4353Z" fill="#F1F1F1"/>
<path d="M50.7602 48.0987H49.5483C49.2454 48.0987 48.9424 48.3286 48.9424 48.6352C48.9424 48.9417 49.1696 49.2483 49.4726 49.2483H50.6845C50.9875 49.2483 51.2904 48.9417 51.2904 48.6352C51.2904 48.3286 51.0632 48.0987 50.7602 48.0987Z" fill="#F1F1F1"/>
<path d="M55.3806 47.5622L54.1687 47.7155C53.8657 47.7155 53.5627 48.0221 53.6385 48.4053C53.6385 48.7118 53.9415 49.0184 54.3202 48.9417H54.3959C54.7746 48.8651 55.1534 48.7885 55.6078 48.7118C55.9108 48.6352 56.138 48.3286 56.0623 48.0221C55.9865 47.7155 55.6836 47.4856 55.3806 47.5622Z" fill="#F1F1F1"/>
<path d="M35.0813 36.3728C34.8541 36.1428 34.4754 36.1428 34.2481 36.3728V36.4494C34.0209 36.6793 34.0209 37.0625 34.2481 37.2924L35.157 38.0588C35.2328 38.1355 35.3843 38.2121 35.5358 38.2121C35.6872 38.2121 35.9145 38.1355 35.9902 37.9822C36.2175 37.7523 36.1417 37.3691 35.9145 37.1392L35.0813 36.3728Z" fill="#F1F1F1"/>
<path d="M59.7737 46.1827L58.7133 46.5659C58.4103 46.6425 58.1831 46.9491 58.1831 47.2556C58.2588 47.5622 58.5618 47.7921 58.8648 47.7921H59.092L60.2282 47.3323C60.5312 47.179 60.6826 46.8724 60.5312 46.5659C60.4554 46.2593 60.1524 46.106 59.7737 46.1827C59.8242 46.1827 59.8242 46.1827 59.7737 46.1827Z" fill="#F1F1F1"/>
<path d="M42.2012 42.7339C41.9739 42.504 41.5952 42.504 41.368 42.7339C41.1408 42.9638 41.1408 43.347 41.368 43.5769H41.4437L42.3527 44.3433C42.4284 44.42 42.5799 44.4966 42.7314 44.4966C42.8829 44.4966 43.1101 44.42 43.1858 44.2667C43.4131 44.0368 43.4131 43.6536 43.1858 43.4237H43.1101L42.2012 42.7339Z" fill="#F1F1F1"/>
<path d="M45.8369 45.8762C45.6097 45.6463 45.2309 45.6463 45.0037 45.8762L44.928 45.9528C44.7007 46.1827 44.7007 46.5659 45.0037 46.7959H45.0795L46.0641 47.5623C46.1399 47.6389 46.2913 47.7155 46.4428 47.7155C46.5943 47.7155 46.8216 47.6389 46.8973 47.4856C47.1245 47.2557 47.0488 46.8725 46.8216 46.6426L45.8369 45.8762Z" fill="#F1F1F1"/>
<path d="M67.4996 41.0478L66.6664 41.8909C66.4392 42.1208 66.4392 42.504 66.6664 42.7339C66.7421 42.8872 66.9694 42.9638 67.1209 42.9638C67.2723 42.9638 67.4238 42.8872 67.4996 42.8105C67.8026 42.504 68.1055 42.2741 68.4085 41.8909C68.6357 41.6609 68.6357 41.2777 68.4085 41.0478C68.1813 40.7413 67.8026 40.8173 67.4996 41.0478Z" fill="#F1F1F1"/>
<path d="M63.9396 44.0368C63.6366 44.2667 63.2579 44.42 62.955 44.6499C62.652 44.8032 62.5762 45.1864 62.7277 45.4929C62.8035 45.6462 63.0307 45.7995 63.2579 45.7995C63.3337 45.7995 63.4852 45.7995 63.5609 45.7229C63.9396 45.4929 64.2426 45.263 64.6213 45.1097C64.9243 44.9565 65 44.5733 64.7728 44.2667C64.5456 43.9601 64.1669 43.8835 63.9403 44.0368H63.9396Z" fill="#F1F1F1"/>
<path d="M38.2626 52.7737H0.542221C0.239247 52.8504 -0.0637276 53.1569 0.012016 53.4635C0.012016 53.7701 0.239247 54 0.542221 54H38.2626C38.5655 53.9233 38.8685 53.6168 38.7928 53.3102C38.7928 53.0037 38.5655 52.8504 38.2626 52.7737Z" fill="#F1F1F1"/>
<path d="M0.542221 46.7192H30.2337C30.5367 46.6425 30.8397 46.336 30.7639 46.0294C30.7639 45.7228 30.5367 45.4929 30.2337 45.4929H0.542221C0.239247 45.5696 -0.0637276 45.8761 0.012016 46.1827C0.0877597 46.4892 0.314991 46.7192 0.542221 46.7192Z" fill="#F1F1F1"/>
<path d="M0.542221 39.515H21.4475C21.7504 39.5916 22.0534 39.2851 22.1292 38.9785C22.2049 38.672 21.9019 38.3654 21.599 38.2888H0.542221C0.239247 38.3654 -0.0637276 38.672 0.012016 38.9785C0.0877597 39.2851 0.314991 39.4384 0.542221 39.515Z" fill="#F1F1F1"/>
</g>
<defs>
<clipPath id="clip0_10_2113">
<rect width="72" height="54" fill="white"/>
</clipPath>
</defs>
</svg>
