<svg width="116" height="60" viewBox="0 0 116 60" fill="none" xmlns="http://www.w3.org/2000/svg">
<g opacity="0.4">
<path d="M61.7913 23.1754L61.7914 23.1755L61.8019 23.171C62.6636 22.8091 63.6008 23.2086 64.258 24.1629C64.9099 25.1096 65.0638 26.3124 64.5693 27.1531C63.8465 28.0784 63.4251 29.133 63.1509 30.1407L62.8576 31.2189L63.9666 31.0819C68.5639 30.514 72.4914 28.9463 76.5284 25.9789L76.5285 25.979L76.5394 25.9707C77.0261 25.599 77.6791 25.5249 78.3409 25.7293C79.0092 25.9357 79.5916 26.4013 79.8823 26.9611L79.885 26.9661C80.1519 27.4705 80.6854 27.5946 81.0188 27.6281C81.3918 27.6657 81.8253 27.6236 82.2613 27.5483C83.1441 27.3957 84.2356 27.0697 85.3035 26.7046C87.0194 26.118 88.7816 25.3915 89.6652 25.0273C89.8782 24.9395 90.0401 24.8727 90.138 24.8341C90.8039 24.5863 91.4412 24.7035 91.9902 25.0573C92.5492 25.4175 92.9998 26.0176 93.2163 26.6798C93.2493 26.8178 93.2794 26.9385 93.3062 27.046C93.3984 27.4156 93.4516 27.6291 93.4516 27.8561V28.5785L94.1735 28.6056C96.0945 28.6776 98.1946 28.3897 100.204 28.0438C100.869 27.9293 101.52 27.8093 102.154 27.6925C103.469 27.4503 104.709 27.2218 105.845 27.0842L105.852 27.0832C106.678 26.9748 107.216 27.2293 107.563 27.6112C107.934 28.0191 108.156 28.6504 108.156 29.3726C108.156 30.8384 107.278 32.2729 105.663 32.4882C104.435 32.6279 103.168 32.8192 101.896 33.0124L101.798 33.0274C100.552 33.2167 99.3006 33.4069 98.0511 33.5564C95.4949 33.8621 92.9991 33.9903 90.6868 33.6021C89.9767 33.4014 89.3425 32.6985 89.0001 31.7397L88.7467 31.0302L88.0384 31.2867C86.1288 31.9782 84.1972 32.6395 82.3835 32.8858C80.5773 33.1311 78.9864 32.9505 77.6895 32.0624L77.2878 31.7873L76.873 32.0422C71.622 35.2699 65.8646 36.7498 59.5803 36.4815C58.6391 36.4251 58.0054 35.9998 57.6114 35.3923C57.2015 34.76 57.0207 33.8768 57.1361 32.9077L57.1413 32.8635V32.8191C57.1413 32.8185 57.1413 32.8179 57.1413 32.8173C57.1412 32.8079 57.1411 32.7981 57.1718 32.7013C57.1731 32.6974 57.1744 32.6933 57.1758 32.689C57.21 32.5817 57.2726 32.385 57.2726 32.1298V30.957L56.2081 31.4489C52.8972 32.9787 49.7234 34.7839 46.5816 36.5709L46.568 36.5787L46.5604 36.583L46.5529 36.5875C45.821 37.0266 45.1624 37.0402 44.6154 36.8405C44.0456 36.6326 43.535 36.1684 43.1969 35.5576C42.5148 34.3257 42.6442 32.7852 44.0419 31.9461C49.783 28.5208 55.6555 25.643 61.7913 23.1754Z" fill="#F1F1F1" stroke="white" stroke-width="1.5"/>
<path d="M11.8984 30.4347C22.6724 27.2883 33.7678 23.99 44.0708 19.3111L44.1875 19.2581L44.28 19.1693C48.2602 15.3487 52.232 11.8091 56.4631 8.54545L56.4694 8.54055L56.4757 8.5355C56.5848 8.44758 56.6938 8.35966 56.8027 8.27178C61.6704 4.3453 66.4265 0.508884 72.6074 0.76182C73.6801 0.815507 74.5806 1.52917 74.9985 2.48578C75.4087 3.42482 75.323 4.52321 74.5055 5.36913C66.4658 13.229 57.2299 18.9324 47.3034 23.5605L47.1786 23.6187L47.0826 23.7174L47.0764 23.7238C45.4851 25.3604 43.8801 27.011 42.4065 28.6641C37.4565 34.0308 33.0413 39.6728 29.028 45.7266L28.256 46.891H29.6531H113.101C114.156 46.891 115.013 47.7921 115.013 48.7417C115.013 49.8531 114.131 50.7293 113.101 50.7293H26.1927H25.7785L25.5579 51.0799C24.0935 53.4076 22.7505 55.6164 21.5389 57.9688C21.1079 58.7389 20.5339 59.096 19.9629 59.2086C19.3687 59.3258 18.7074 59.1905 18.1264 58.843C16.9648 58.1485 16.3062 56.7531 17.1327 55.2655L17.1328 55.2656L17.137 55.2577C17.7921 54.045 18.448 52.9654 19.1144 51.8688L19.8069 50.7293H18.4735H3.56733C2.53725 50.7293 1.65552 49.8531 1.65552 48.7417C1.65552 47.6303 2.53725 46.7541 3.56733 46.7541H21.6676H22.078L22.2993 46.4085C25.8776 40.82 29.7206 35.5049 33.828 30.4629L35.5249 28.3799L32.9945 29.2828C26.493 31.6027 19.8545 33.6511 13.2085 35.5649L13.2085 35.5649L13.2014 35.567C12.3786 35.8127 11.732 35.6626 11.2473 35.3322C10.7428 34.9885 10.3601 34.4105 10.1819 33.7335C10.0038 33.0574 10.0452 32.3399 10.317 31.7479C10.5805 31.1742 11.0754 30.681 11.8984 30.4347ZM11.8984 30.4347C11.8977 30.4349 11.8969 30.4351 11.8961 30.4354L11.6859 29.7154M11.8984 30.4347C11.8991 30.4345 11.8998 30.4343 11.9004 30.4341L11.6859 29.7154M11.6859 29.7154C7.56005 30.9474 9.29022 37.5176 13.416 36.2857L75.037 5.8984C77.1664 3.70833 75.4362 0.14946 72.6413 0.0125802C66.1721 -0.253554 61.2123 3.74921 56.4168 7.61937C56.2794 7.73025 56.1422 7.84103 56.005 7.95159C51.7461 11.2367 47.7534 14.7956 43.7607 18.6282C33.5127 23.2821 22.4662 26.5672 11.6859 29.7154ZM30.1538 45.391C34.0124 39.6515 38.2428 34.284 42.9621 29.1679C44.4261 27.5254 46.0232 25.8828 47.6203 24.2403L30.1538 45.391ZM30.1538 45.391H29.6531V46.141L30.2782 46.5554C30.3699 46.417 30.4618 46.2789 30.554 46.141H113.101C114.565 46.141 115.763 47.3729 115.763 48.7417C115.763 50.2474 114.565 51.4793 113.101 51.4793H26.1927C24.7287 53.8062 23.3978 55.9963 22.2 58.3233L30.1538 45.391Z" fill="#F1F1F1" stroke="white" stroke-width="1.5"/>
</g>
</svg>
