<svg width="72" height="69" viewBox="0 0 72 69" fill="none" xmlns="http://www.w3.org/2000/svg">
<g opacity="0.4" clip-path="url(#clip0_5_1025)">
<path d="M69.7427 23.0963L69.743 23.0958C69.8365 22.9139 69.8519 22.7024 69.7742 22.5061C69.6956 22.3073 69.5555 22.1569 69.354 22.0815L69.3516 22.0806L69.3516 22.0805C67.7799 21.3976 66.4253 20.3243 65.4218 18.9581L65.4214 18.9576C65.1719 18.6088 64.6873 18.5313 64.326 18.7755C63.982 19.0192 63.8895 19.4892 64.1384 19.8374C65.1317 21.2059 66.4565 22.3173 67.9641 23.1067L68.0044 23.1278L67.9871 23.17C66.4142 27.0022 67.2087 31.3497 70.0405 34.4257L70.0717 34.4595L70.0405 34.4934C67.2089 37.5692 66.4308 41.9328 68.0203 45.7651L68.0379 45.8075L67.9972 45.8286C64.2541 47.7775 61.986 51.6103 62.135 55.7321L62.1366 55.7771L62.092 55.7834C57.8847 56.3794 54.4071 59.2304 53.0825 63.1433L53.0684 63.185L53.0252 63.1763C48.8675 62.3386 44.5944 63.853 41.978 67.1061L41.9506 67.1401L41.9132 67.1176C38.3026 64.9432 33.7475 64.9592 30.1533 67.1176L30.1161 67.14L30.0888 67.1063C27.4557 63.8693 23.1825 62.371 19.0247 63.2087L18.9815 63.2174L18.9674 63.1757C17.6429 59.263 14.1488 56.4279 9.95784 55.8319L9.91347 55.8256L9.91491 55.7808C10.0474 51.659 7.76263 47.8261 4.01943 45.8772L3.97892 45.8561L3.99626 45.8138C5.5692 41.9816 4.77464 37.6341 1.94289 34.5581L1.9118 34.5244L1.94279 34.4905C4.75802 31.4145 5.5525 27.0508 3.96309 23.2349L3.94544 23.1925L3.98616 23.1713C7.72925 21.2224 9.99738 17.3897 9.84837 13.2679L9.84675 13.2229L9.8913 13.2166C14.0822 12.6206 17.5762 9.76948 18.8842 5.85682L18.8982 5.81493L18.9415 5.82366C23.0992 6.66133 27.3723 5.14695 29.9888 1.89386L30.0161 1.85984L30.0535 1.88236C33.6643 4.05688 38.2193 4.05682 41.8133 1.88241L41.8505 1.85989L41.878 1.89364C44.5111 5.13067 48.7842 6.62899 52.9421 5.7913L52.985 5.78264L52.9992 5.8241C53.6119 7.61141 54.6881 9.2217 56.1452 10.494C56.4753 10.7687 56.9604 10.7523 57.2573 10.4332L57.2581 10.4323C57.5527 10.1308 57.5238 9.64606 57.1943 9.35617L57.1943 9.35614C55.773 8.10399 54.7693 6.49371 54.3009 4.67176L54.3007 4.67085C54.2546 4.47637 54.1151 4.30869 53.9412 4.2008C53.7527 4.09411 53.5341 4.06439 53.3323 4.12479L53.3314 4.12505C49.319 5.24688 45.0552 3.73519 42.7137 0.385225C42.587 0.216075 42.4152 0.0958234 42.1983 0.0656895C41.9743 0.0345735 41.7733 0.0663441 41.6041 0.200895L41.6019 0.202647L41.6019 0.202582C38.2241 2.59306 33.6927 2.59297 30.2984 0.202649L30.2983 0.202591C30.1266 0.081131 29.9069 0.0350281 29.7024 0.0656148C29.5009 0.0957619 29.3127 0.21686 29.1866 0.385183C26.8451 3.75132 22.598 5.26301 18.5856 4.15745L18.5846 4.15716C18.3824 4.09665 18.1635 4.12656 17.9748 4.23363C17.7869 4.34021 17.6627 4.50678 17.6161 4.70321L17.6159 4.70402C16.6122 8.64081 13.1333 11.4864 8.97024 11.7791L8.9702 11.7791C8.75012 11.7943 8.5633 11.8855 8.42274 12.0526C8.28099 12.2211 8.22017 12.4171 8.25087 12.6112L8.25126 12.6136L8.25119 12.6136C8.6861 16.6479 6.42795 20.4698 2.61612 22.1286C2.42633 22.2212 2.27001 22.3743 2.19227 22.5553C2.11492 22.7514 2.13034 22.9626 2.22377 23.1443L2.22402 23.1448C4.04724 26.7885 3.27768 31.1482 0.267048 33.9622L0.265854 33.9633L0.265836 33.9633C0.111848 34.0981 0.0333679 34.2938 0.0333679 34.5081C0.0333679 34.7198 0.126751 34.9173 0.26741 35.0543C3.27761 37.8681 4.06388 42.2276 2.24065 45.8714L2.24041 45.8719C2.14687 46.0538 2.13152 46.2652 2.20916 46.4615C2.28759 46.6599 2.428 46.8117 2.63196 46.9033C2.63208 46.9034 2.63219 46.9034 2.63231 46.9035L2.61183 46.9491C6.40481 48.5831 8.66729 52.385 8.23475 56.4133L69.7427 23.0963ZM69.7427 23.0963C67.9197 26.7558 68.7056 31.0985 71.715 33.9124C71.8576 34.067 71.95 34.2652 71.95 34.4595C71.95 34.6582 71.8712 34.8699 71.7175 35.0043L71.7163 35.0054C68.7058 37.8193 67.9194 42.179 69.7594 45.823L69.7596 45.8233C69.853 46.005 69.8684 46.2162 69.7911 46.4123C69.7134 46.5933 69.557 46.7465 69.3671 46.839C65.5554 48.4979 63.2973 52.3198 63.7322 56.354L63.7321 56.354L63.7325 56.3564C63.7634 56.5517 63.7015 56.7628 63.5622 56.9133L63.5622 56.9132M69.7427 23.0963L63.5622 56.9132M63.5622 56.9132L63.5606 56.915M63.5622 56.9132L63.5606 56.915M63.5606 56.915C63.4205 57.0816 63.2173 57.1733 63.0129 57.1886L63.5606 56.915ZM8.45636 56.9802C8.33214 56.8292 8.26906 56.616 8.28455 56.418L29.2126 68.6279C26.8836 65.2952 22.6414 63.7906 18.6488 64.9069L18.6379 64.8581C18.6374 64.8582 18.637 64.8583 18.6366 64.8584C18.429 64.9047 18.1945 64.8876 18.0263 64.7835C17.852 64.6756 17.7123 64.5077 17.666 64.3129L17.6658 64.3119C16.6454 60.3754 13.1666 57.5297 9.00347 57.2533C8.78376 57.238 8.5804 57.131 8.45636 56.9802ZM29.7651 68.9176C29.5498 68.8867 29.3791 68.7668 29.253 68.5985L53.3678 64.8584C49.3752 63.7582 45.1497 65.2628 42.8207 68.6117L42.7807 68.5818C42.7805 68.582 42.7803 68.5823 42.7801 68.5825C42.654 68.7508 42.4658 68.8719 42.2643 68.902C42.0599 68.9326 41.8402 68.8865 41.6684 68.765L41.6684 68.765C38.2741 66.3746 33.7426 66.3746 30.3648 68.765L30.3647 68.7649L30.3613 68.7678C30.2396 68.8713 30.0693 68.9176 29.9113 68.9176H29.911H29.9107H29.9104H29.9101H29.9098H29.9095H29.9092H29.9089H29.9086H29.9084H29.9081H29.9078H29.9075H29.9072H29.9069H29.9066H29.9063H29.906H29.9057H29.9054H29.9051H29.9048H29.9046H29.9043H29.904H29.9037H29.9034H29.9031H29.9028H29.9025H29.9022H29.9019H29.9016H29.9013H29.901H29.9008H29.9005H29.9002H29.8999H29.8996H29.8993H29.899H29.8987H29.8984H29.8981H29.8978H29.8975H29.8972H29.8969H29.8967H29.8964H29.8961H29.8958H29.8955H29.8952H29.8949H29.8946H29.8943H29.894H29.8937H29.8934H29.8931H29.8929H29.8926H29.8923H29.892H29.8917H29.8914H29.8911H29.8908H29.8905H29.8902H29.8899H29.8896H29.8893H29.8891H29.8888H29.8885H29.8882H29.8879H29.8876H29.8873H29.887H29.8867H29.8864H29.8861H29.8858H29.8855H29.8853H29.885H29.8847H29.8844H29.8841H29.8838H29.8835H29.8832H29.8829H29.8826H29.8823H29.882H29.8817H29.8815H29.8812H29.8809H29.8806H29.8803H29.88H29.8797H29.8794H29.8791H29.8788H29.8785H29.8782H29.8779H29.8777H29.8774H29.8771H29.8768H29.8765H29.8762H29.8759H29.8756H29.8753H29.875H29.8747H29.8744H29.8741H29.8738H29.8736H29.8733H29.873H29.8727H29.8724H29.8721H29.8718H29.8715H29.8712H29.8709H29.8706H29.8703H29.87H29.8698H29.8695H29.8692H29.8689H29.8686H29.8683H29.868H29.8677H29.8674H29.8671H29.8668H29.8665H29.8662H29.866H29.8657H29.8654H29.8651H29.8648H29.8645H29.8642H29.8639H29.8636H29.8633H29.863H29.8627H29.8624H29.8622H29.8619H29.8616H29.8613H29.861H29.8607H29.8604H29.8601H29.8598H29.8595H29.8592H29.8589H29.8586H29.8584H29.8581H29.8578H29.8575H29.8572H29.8569H29.8566H29.8563H29.856H29.8557H29.8554H29.8551H29.8548H29.8545H29.8543H29.854H29.8537H29.8534H29.8531H29.8528H29.8525H29.8522H29.8519H29.8516H29.8513H29.851H29.8507H29.8505H29.8502H29.8499H29.8496H29.8493H29.849H29.8487H29.8484H29.8481H29.8478H29.8475H29.8472H29.8469H29.8467H29.8464H29.8461H29.8458H29.8455H29.8452H29.8449H29.8446H29.8443H29.844H29.8437H29.8434H29.8431H29.8429H29.8426H29.8423H29.842H29.8417H29.8414H29.8411H29.8408H29.8405H29.8402H29.8399H29.8396H29.8393H29.8391H29.8388H29.8385H29.8382H29.8379H29.8376H29.8373H29.837H29.8367H29.8364H29.8361H29.8358H29.8355H29.8352H29.835H29.8347H29.8344H29.8341H29.8338H29.8335H29.8332H29.8329H29.8326H29.8323H29.832H29.8317H29.8314H29.8312H29.8309H29.8306H29.8303H29.83H29.8297H29.8294H29.8291H29.8288H29.8285H29.8282H29.8279H29.8276H29.8274H29.8271H29.8268H29.8265H29.8262H29.8259H29.8256H29.8253H29.825H29.8247H29.8244H29.8241H29.8238H29.8236H29.8233H29.823H29.8227H29.8224H29.8221H29.8218H29.8215H29.8212H29.8209H29.8206H29.8203H29.82H29.8197H29.8195H29.8192H29.8189H29.8186H29.8183H29.818H29.8177H29.8174H29.8171H29.8168H29.8165H29.8162H29.8159H29.8157H29.8154H29.8151H29.8148H29.8145H29.8142H29.8139H29.8136H29.8133H29.813H29.8127H29.8124H29.8121H29.8119H29.8116H29.8113H29.811H29.8107H29.8104H29.8101H29.8098H29.8095H29.8092H29.8089H29.8086H29.8083H29.8081H29.8078H29.8075H29.8072H29.8069H29.8066H29.8063H29.806H29.8057H29.8054H29.8051H29.8048H29.8045H29.8043H29.804H29.8037H29.8034H29.8031H29.8028H29.8025H29.8022H29.8019H29.8016H29.8013H29.801H29.8007H29.8004H29.8002H29.7999H29.7996H29.7993H29.799H29.7987H29.7984H29.7981H29.7978H29.7975H29.7972H29.7969H29.7966H29.7964H29.7961H29.7958H29.7955H29.7952H29.7949H29.7946H29.7943H29.794H29.7937H29.7934H29.7931H29.7928H29.7926H29.7923H29.792H29.7917H29.7914H29.7911H29.7908H29.7905H29.7902H29.7899H29.7896H29.7893H29.789H29.7888H29.7885H29.7882H29.7879H29.7876H29.7873H29.787H29.7867H29.7864H29.7861H29.7858H29.7855H29.7852H29.785H29.7847H29.7844H29.7841H29.7838H29.7835H29.7832H29.7829H29.7826H29.7823H29.782H29.7817H29.7814H29.7811H29.7809H29.7806H29.7803H29.78H29.7797H29.7794H29.7791H29.7788H29.7785H29.7782H29.7779H29.7776H29.7773H29.7771H29.7768H29.7765H29.7762H29.7759H29.7756H29.7753H29.775H29.7747H29.7744H29.7741H29.7738H29.7735H29.7733H29.773H29.7727H29.7724H29.7721H29.7718H29.7715H29.7712H29.7709H29.7706H29.7703H29.77H29.7697H29.7695H29.7692H29.7689H29.7686H29.7683H29.768H29.7677H29.7674H29.7671H29.7668H29.7665H29.7662H29.7659H29.7656H29.7654H29.7651Z" fill="#F1F1F1" stroke="white" stroke-width="0.1"/>
<path d="M40.6332 60.9263C39.0721 61.1847 37.5111 61.3139 35.9501 61.3139C30.2874 61.3139 24.7742 59.6183 20.058 56.3723C14.0632 52.2219 10.0617 46.0534 8.83299 38.9971L8.83297 38.9969C7.58767 31.9406 9.24795 24.836 13.5154 18.9903L13.5154 18.9903C22.3162 6.92741 39.5537 4.06852 51.9587 12.6278L51.959 12.6281C52.3179 12.8708 52.3962 13.3403 52.146 13.69C51.8964 14.0389 51.4116 14.1163 51.0502 13.8718L50.9722 13.8191L40.6414 60.9756M40.6332 60.9263L40.6414 60.9756M40.6332 60.9263C40.6332 60.9263 40.6332 60.9263 40.6332 60.9263L40.6414 60.9756M40.6332 60.9263C47.8904 59.715 54.2336 55.8392 58.5012 49.9935M40.6414 60.9756C47.9113 59.7623 54.2662 55.8795 58.5416 50.023M58.5012 49.9935L58.5416 50.023M58.5012 49.9935C64.2297 42.1296 65.1761 31.8276 60.9754 23.1081C60.7878 22.7285 60.3347 22.5605 59.9265 22.7435C59.5348 22.9266 59.3649 23.3821 59.5513 23.7598L59.5515 23.7603C63.5189 31.9955 62.6186 41.7059 57.2179 49.1302L57.2179 49.1303C53.2007 54.6417 47.2168 58.3049 40.3668 59.4395C33.5168 60.5741 26.6331 59.0505 20.9495 55.1441L20.9494 55.1441C9.24829 47.0717 6.48062 31.2499 14.7822 19.8859L58.5416 50.023M58.5012 49.9935C58.5012 49.9935 58.5012 49.9935 58.5012 49.9935L58.5416 50.023M51.0722 13.9447V13.9294V13.9133H51.0333M51.0722 13.9447L50.9722 13.8344C50.9957 13.8505 51.0192 13.8667 51.0427 13.8829C51.0453 13.8847 51.048 13.8865 51.0506 13.8883L51.0333 13.9133M51.0722 13.9447C51.0637 13.9398 51.0553 13.9347 51.047 13.9294C51.0412 13.9258 51.0355 13.9221 51.0298 13.9184L51.0333 13.9133M51.0722 13.9447L51.0222 13.9133H51.0333" fill="#F1F1F1" stroke="white" stroke-width="0.1"/>
<path d="M35.7836 33.4182L24.9589 26.0559L24.9589 26.0559C22.9848 24.712 20.0375 25.2247 18.6561 27.1439L18.6561 27.1439C17.2257 29.1266 17.7347 31.8775 19.7749 33.2695L35.7836 33.4182ZM35.7836 33.4182V33.5508L35.8727 33.4391C44.9671 22.0403 57.0044 13.099 70.7211 7.56923C71.0652 7.43246 71.5036 7.57056 71.6902 7.90323C71.8773 8.23681 71.7839 8.66195 71.4716 8.88988C57.992 18.6648 46.3928 30.4951 37.0235 44.0733L37.0229 44.0744C36.9149 44.2394 36.7293 44.3603 36.5285 44.3915H36.5282H36.528H36.5277H36.5274H36.5271H36.5268H36.5265H36.5262H36.5259H36.5256H36.5253H36.525H36.5247H36.5244H36.5242H36.5239H36.5236H36.5233H36.523H36.5227H36.5224H36.5221H36.5218H36.5215H36.5212H36.5209H36.5206H36.5204H36.5201H36.5198H36.5195H36.5192H36.5189H36.5186H36.5183H36.518H36.5177H36.5174H36.5171H36.5168H36.5166H36.5163H36.516H36.5157H36.5154H36.5151H36.5148H36.5145H36.5142H36.5139H36.5136H36.5133H36.513H36.5128H36.5125H36.5122H36.5119H36.5116H36.5113H36.511H36.5107H36.5104H36.5101H36.5098H36.5095H36.5092H36.5089H36.5087H36.5084H36.5081H36.5078H36.5075H36.5072H36.5069H36.5066H36.5063H36.506H36.5057H36.5054H36.5051H36.5049H36.5046H36.5043H36.504H36.5037H36.5034H36.5031H36.5028H36.5025H36.5022H36.5019H36.5016H36.5013H36.5011H36.5008H36.5005H36.5002H36.4999H36.4996H36.4993H36.499H36.4987H36.4984H36.4981H36.4978H36.4975H36.4973H36.497H36.4967H36.4964H36.4961H36.4958H36.4955H36.4952H36.4949H36.4946H36.4943H36.494H36.4937H36.4935H36.4932H36.4929H36.4926H36.4923H36.492H36.4917H36.4914H36.4911H36.4908H36.4905H36.4902H36.4899H36.4896H36.4894H36.4891H36.4888H36.4885H36.4882H36.4879H36.4876H36.4873H36.487H36.4867H36.4864H36.4861H36.4858H36.4856H36.4853H36.485H36.4847H36.4844H36.4841H36.4838H36.4835H36.4832H36.4829H36.4826H36.4823H36.482H36.4818H36.4815H36.4812H36.4809H36.4806H36.4803H36.48H36.4797H36.4794H36.4791H36.4788H36.4785H36.4782H36.478H36.4777H36.4774H36.4771H36.4768H36.4765H36.4762H36.4759H36.4756H36.4753H36.475H36.4747H36.4744H36.4742H36.4739H36.4736H36.4733H36.473H36.4727H36.4724H36.4721H36.4718H36.4715H36.4712H36.4709H36.4706H36.4704H36.4701H36.4698H36.4695H36.4692H36.4689H36.4686H36.4683H36.468H36.4677H36.4674H36.4671H36.4668H36.4665H36.4663H36.466H36.4657H36.4654H36.4651H36.4648H36.4645H36.4642H36.4639H36.4636H36.4633H36.463H36.4627H36.4625H36.4622H36.4619H36.4616H36.4613H36.461H36.4607H36.4604H36.4601H36.4598H36.4595H36.4592H36.4589H36.4587H36.4584H36.4581H36.4578H36.4575H36.4572H36.4569H36.4566H36.4563H36.456H36.4557H36.4554H36.4551H36.4549H36.4546H36.4543H36.454H36.4537H36.4534H36.4531H36.4528H36.4525H36.4522H36.4519H36.4516H36.4513H36.451H36.4508H36.4505H36.4502H36.4499H36.4496H36.4493H36.449H36.4487H36.4484H36.4481H36.4478H36.4475H36.4472H36.447H36.4467H36.4464H36.4461H36.4458H36.4455H36.4452H36.4449H36.4446H36.4443H36.444H36.4437H36.4434H36.4432H36.4429H36.4426H36.4423H36.442H36.4417H36.4414H36.4411H36.4408H36.4405H36.4402H36.4399H36.4396H36.4394H36.4391H36.4388H36.4385H36.4382H36.4379H36.4376H36.4373H36.437H36.4367H36.4364H36.4361H36.4358H36.4356H36.4353H36.435H36.4347H36.4344H36.4341H36.4338H36.4335H36.4332H36.4329H36.4326H36.4323H36.432H36.4318H36.4315H36.4312H36.4309H36.4306H36.4303H36.43H36.4297H36.4294H36.4291H36.4288H36.4285H36.4282H36.4279H36.4277H36.4274H36.4271H36.4268H36.4265H36.4262H36.4259H36.4256H36.4253H36.425H36.4247H36.4244H36.4241H36.4239H36.4236H36.4233H36.423H36.4227H36.4224H36.4221H36.4218H36.4215H36.4212H36.4209H36.4206H36.4203H36.4201H36.4198H36.4195H36.4192H36.4189H36.4186H36.4183H36.418H36.4177H36.4174H36.4171H36.4168H36.4165H36.4163H36.416H36.4157H36.4154H36.4151H36.4148H36.4145H36.4142H36.4139H36.4136H36.4133H36.413H36.4127H36.4125H36.4122H36.4119H36.4116H36.4113H36.411H36.4107H36.4104H36.4101H36.4098H36.4095H36.4092H36.4089H36.4086H36.4084H36.4081H36.4078H36.4075H36.4072H36.4069H36.4066H36.4063H36.406H36.4057H36.4054H36.4051H36.4048H36.4046H36.4043H36.404H36.4037H36.4034H36.4031H36.4028H36.4025H36.4022H36.4019H36.4016H36.4013H36.401H36.4008H36.4005H36.4002H36.3999H36.3996H36.3993H36.399H36.3987H36.3984H36.3981H36.3978H36.3975H36.3972H36.397H36.3967H36.3964H36.3961H36.3958H36.3955H36.3952H36.3949H36.3946H36.3943H36.394H36.3937H36.3934H36.3932H36.3929H36.3926H36.3923H36.392H36.3917H36.3914H36.3911H36.3908H36.3905H36.3902H36.3899H36.3896H36.3893H36.3891H36.3888H36.3885H36.3882H36.3879H36.3876H36.3873H36.387H36.3867H36.3864H36.3861H36.3858H36.3855H36.3853H36.385H36.3847H36.3844H36.3841H36.3838H36.3835H36.3832H36.3829H36.3826C36.2084 44.3915 36.0528 44.3454 35.9297 44.2555L35.9283 44.2545L19.7749 33.2696L35.7836 33.4182Z" fill="#F1F1F1" stroke="white" stroke-width="0.1"/>
</g>
<defs>
<clipPath id="clip0_5_1025">
<rect width="72" height="69" fill="white"/>
</clipPath>
</defs>
</svg>
