<svg width="254" height="79" viewBox="0 0 254 79" fill="none" xmlns="http://www.w3.org/2000/svg">
<path d="M182.859 34.3333L190.644 49.597L208.661 11.1406L217.378 11.2421L193.937 58.5986H186.576L173.596 34.4275L182.859 34.3333Z" fill="#52B172"/>
<path d="M219.947 11.3516H228.571L205.417 58.7153H196.986L219.947 11.3516Z" fill="#52B172"/>
<path d="M41.2284 30.8755V58.7937H34.5053C34.5053 58.7937 33.9959 54.9234 33.9959 51.5967V49.8355C32.4604 54.9017 28.4352 59.4315 21.0591 59.4315C12.7933 59.4315 6.27832 53.5898 6.27832 44.8781C6.27832 36.1663 12.8005 30.2305 21.4466 30.2305C28.593 30.2305 32.4963 33.8543 33.9959 39.1451V30.8828H41.2284V30.8755ZM33.9959 44.8708C33.9959 39.1307 29.8774 35.9199 23.391 35.9199C16.9047 35.9199 13.6687 39.4713 13.6687 44.8708C13.6687 50.2704 17.5505 53.7783 23.391 53.7783C29.9419 53.7783 33.9959 50.2051 33.9959 44.8708Z" fill="white"/>
<path d="M80.3182 44.8778C80.3182 53.7345 73.7171 59.4457 65.5374 59.4457C58.1973 59.4457 54.172 54.9594 52.6222 49.9077V70.0346H45.3896V30.8753H52.2634L52.6222 38.2607V39.1086C54.1505 33.8468 58.1255 30.252 65.5374 30.252C73.8391 30.252 80.3182 36.2096 80.3182 44.8851V44.8778ZM72.9278 44.8778C72.9278 39.5 69.3905 35.8907 63.2055 35.8907C57.4367 35.8907 52.9451 38.913 52.6222 44.2473V45.5084C52.9307 50.5093 56.9201 53.7853 63.2055 53.7853C69.0891 53.7853 72.9278 50.2774 72.9278 44.8778Z" fill="white"/>
<path d="M118.261 44.8778C118.261 53.7345 111.659 59.4457 103.48 59.4457C96.1397 59.4457 92.1144 54.9594 90.5646 49.9077V70.0346H83.332V30.8753H90.2058L90.5646 38.2607V39.1086C92.0929 33.8468 96.0679 30.252 103.48 30.252C111.781 30.252 118.261 36.2096 118.261 44.8851V44.8778ZM110.87 44.8778C110.87 39.5 107.333 35.8907 101.148 35.8907C95.3791 35.8907 90.8875 38.913 90.5646 44.2473V45.5084C90.8731 50.5093 94.8625 53.7853 101.148 53.7853C107.032 53.7853 110.87 50.2774 110.87 44.8778Z" fill="white"/>
<path d="M139.104 30.2305V36.9129C132.41 36.9129 129.453 41.5804 128.499 43.5518V58.8009H121.267V30.8828H128.499V39.2611C129.547 35.8184 132.589 30.2305 139.104 30.2305Z" fill="white"/>
<path d="M139.851 44.8926C139.851 35.4633 147.019 30.2305 157.48 30.2305C167.941 30.2305 174.959 35.4633 174.959 44.8926C174.959 54.3218 167.862 59.446 157.48 59.446C147.097 59.446 139.851 54.3798 139.851 44.8926ZM167.64 44.8926C167.64 39.1669 163.206 35.8329 157.48 35.8329C151.754 35.8329 147.169 39.1089 147.169 44.8926C147.169 50.6762 151.675 53.8362 157.48 53.8362C163.285 53.8362 167.64 50.6762 167.64 44.8926Z" fill="white"/>
<path d="M246.825 19.627V58.7936H240.102C240.102 58.7936 239.592 54.9233 239.592 51.5966V49.8354C238.064 54.9015 234.032 59.4314 226.663 59.4314C218.282 59.4314 211.882 53.5897 211.882 44.878C211.882 36.1662 218.096 30.2303 226.663 30.2303C234.103 30.2303 238.085 33.8614 239.592 39.1595V19.627H246.825ZM239.592 44.8707C239.592 39.1305 235.474 35.8836 228.987 35.8836C222.501 35.8836 219.265 39.4712 219.265 44.8707C219.265 50.2703 223.147 53.7781 228.987 53.7781C235.538 53.7781 239.592 50.205 239.592 44.8707Z" fill="white"/>
</svg>
